# xmcd
#
# Track frame offsets:
#	150
#	8957
#	18902
#	28227
#	37910
#	48537
#	59620
#	70960
#	82442
#	94527
#	108202
#	122940
#	140175
#	149512
#	158995
#	172875
#	184755
#	199512
#	213942
#	226122
#	236850
#	247905
#	262315
#	275340
#	284115
#	294522
#	303707
#	317690
#
# Disc length: 4369 seconds
#
# Revision: 0
# Processed by: cddbd v1.5.2PL0 Copyright (c) Steve Scherf et al.
# Submitted via: FairStars CD Ripper 1.60
#
DISCID=af110f1c
DTITLE=Koes Plus - Very Best vol 1
DYEAR=1996
DGENRE=Pop
TTITLE0=Cintamu tlah berlalu
TTITLE1=Manis dan sayang
TTITLE2=Oh kasihku
TTITLE3=Diana
TTITLE4=Kolam susu
TTITLE5=Pelangi
TTITLE6=Bis sekolah
TTITLE7=Dara manisku
TTITLE8=Dewi rindu
TTITLE9=Telaga sunyi
TTITLE10=Pagi yang indah
TTITLE11=Mari-mari
TTITLE12=Jangan bimbang ragu
TTITLE13=Oh kau tahu
TTITLE14=Oh kasihan
TTITLE15=Berkali kali
TTITLE16=Tambah satu
TTITLE17=Disana sini
TTITLE18=Sita satu satu
TTITLE19=Jiwa nusantara
TTITLE20=Nusantara
TTITLE21=Penyanyi muda
TTITLE22=Desember
TTITLE23=Anak manja
TTITLE24=O lala
TTITLE25=Janganlah jangan
TTITLE26=Buat apa susah
TTITLE27=Kota lama
EXTD=
EXTT0=
EXTT1=
EXTT2=
EXTT3=
EXTT4=
EXTT5=
EXTT6=
EXTT7=
EXTT8=
EXTT9=
EXTT10=
EXTT11=
EXTT12=
EXTT13=
EXTT14=
EXTT15=
EXTT16=
EXTT17=
EXTT18=
EXTT19=
EXTT20=
EXTT21=
EXTT22=
EXTT23=
EXTT24=
EXTT25=
EXTT26=
EXTT27=
PLAYORDER=
